<svg width="520" height="420" viewBox="0 0 520 420" fill="none" xmlns="http://www.w3.org/2000/svg">
<path d="M260 330L260 150M260 150L336.923 230M260 150L183.077 230M125.385 410C61.6595 410 10 356.274 10 290C10 236.855 43.2193 191.779 89.2411 176.005C87.7191 167.579 86.9231 158.886 86.9231 150C86.9231 72.6801 147.192 10 221.538 10C283.878 10 336.32 54.0694 351.633 113.887C359.113 111.364 367.096 110 375.385 110C417.868 110 452.308 145.817 452.308 190C452.308 199.284 450.787 208.198 447.991 216.488C484.239 230.812 510 267.277 510 310C510 365.228 466.95 410 413.846 410H125.385Z" stroke="#ACEBFF" stroke-opacity="0.18" stroke-width="20" stroke-linecap="round" stroke-linejoin="round"/>
</svg>
