<svg width="28" height="19" viewBox="0 0 28 19" fill="none" xmlns="http://www.w3.org/2000/svg">
<path id="Subtract" fill-rule="evenodd" clip-rule="evenodd" d="M11.8001 0.046875C7.49228 0.046875 4.0001 2.97841 4.0001 6.59465C4.0001 6.77674 4.00898 6.95723 4.02641 7.13582C1.70725 8.05049 0.100098 10.0288 0.100098 12.324C0.100098 15.4882 3.15575 18.0533 6.9251 18.0533H21.5501C24.781 18.0533 27.4001 15.8546 27.4001 13.1424C27.4001 11.3039 26.1969 9.70281 24.4176 8.86126C24.4555 8.65573 24.4751 8.4454 24.4751 8.23159C24.4751 5.97145 22.2925 4.13923 19.6001 4.13923C19.4128 4.13923 19.2277 4.14814 19.0454 4.16551C17.8962 1.75238 15.0864 0.046875 11.8001 0.046875ZM14.4395 6.0159C14.0588 5.69627 13.4414 5.69627 13.0607 6.0159L9.16067 9.28979C8.77991 9.60942 8.77991 10.1277 9.16067 10.4473C9.54143 10.7669 10.1588 10.7669 10.5395 10.4473L12.7751 8.57062L12.7751 13.9609C12.7751 14.4129 13.2116 14.7794 13.7501 14.7794C14.2886 14.7794 14.7251 14.4129 14.7251 13.9609V8.57062L16.9607 10.4473C17.3414 10.7669 17.9588 10.7669 18.3395 10.4473C18.7203 10.1277 18.7203 9.60942 18.3395 9.28979L14.4395 6.0159Z" fill="white" fill-opacity="0.85"/>
</svg>
