<svg width="39" height="36" viewBox="0 0 39 36" fill="none" xmlns="http://www.w3.org/2000/svg">
<g filter="url(#filter0_d_77_480)">
<path d="M20.0724 2.41804C19.6456 2.0062 18.9536 2.0062 18.5268 2.41804L5.86523 14.6362C5.43844 15.048 4.74649 15.048 4.3197 14.6362C3.89291 14.2243 3.89291 13.5566 4.3197 13.1448L16.9813 0.926637C18.2617 -0.308881 20.3375 -0.308878 21.6179 0.926638L34.2795 13.1448C34.7063 13.5566 34.7063 14.2243 34.2795 14.6362C33.8527 15.048 33.1608 15.048 32.734 14.6362L20.0724 2.41804Z" fill="#F7E2D0"/>
<path d="M19.2996 4.65514L7.41077 16.1276C7.36746 16.1694 7.32324 16.2097 7.27818 16.2487V24.9636C7.27818 26.4196 8.5014 27.6 10.0103 27.6H14.9282C15.5317 27.6 16.021 27.1278 16.021 26.5454V20.2179C16.021 19.6355 16.5103 19.1634 17.1139 19.1634H21.4853C22.0889 19.1634 22.5782 19.6355 22.5782 20.2179V26.5454C22.5782 27.1278 23.0675 27.6 23.671 27.6H28.5889C30.0978 27.6 31.321 26.4196 31.321 24.9636V16.2487C31.276 16.2097 31.2318 16.1694 31.1885 16.1276L19.2996 4.65514Z" fill="#F7E2D0"/>
</g>
<defs>
<filter id="filter0_d_77_480" x="0" y="0" width="38.5996" height="35.6001" filterUnits="userSpaceOnUse" color-interpolation-filters="sRGB">
<feFlood flood-opacity="0" result="BackgroundImageFix"/>
<feColorMatrix in="SourceAlpha" type="matrix" values="0 0 0 0 0 0 0 0 0 0 0 0 0 0 0 0 0 0 127 0" result="hardAlpha"/>
<feOffset dy="4"/>
<feGaussianBlur stdDeviation="2"/>
<feComposite in2="hardAlpha" operator="out"/>
<feColorMatrix type="matrix" values="0 0 0 0 0 0 0 0 0 0 0 0 0 0 0 0 0 0 0.25 0"/>
<feBlend mode="normal" in2="BackgroundImageFix" result="effect1_dropShadow_77_480"/>
<feBlend mode="normal" in="SourceGraphic" in2="effect1_dropShadow_77_480" result="shape"/>
</filter>
</defs>
</svg>
