<svg width="51" height="46" viewBox="0 0 51 46" fill="none" xmlns="http://www.w3.org/2000/svg">
<path d="M26.7879 4.03006C26.0766 3.34366 24.9234 3.34367 24.2121 4.03006L3.10938 24.3936C2.39806 25.08 1.2448 25.08 0.533485 24.3936C-0.177826 23.7072 -0.177826 22.5943 0.533485 21.908L21.6362 1.54439C23.7701 -0.514801 27.2299 -0.514796 29.3638 1.5444L50.4665 21.908C51.1778 22.5943 51.1778 23.7072 50.4665 24.3936C49.7552 25.08 48.6019 25.08 47.8906 24.3936L26.7879 4.03006Z" fill="#ACEBFF" fill-opacity="0.63"/>
<path d="M25.5 7.75857L5.68526 26.8793C5.61309 26.9489 5.53939 27.0162 5.46429 27.0812V41.6059C5.46429 44.0327 7.50299 46 10.0179 46H18.2143C19.2202 46 20.0357 45.2131 20.0357 44.2424V33.6966C20.0357 32.7259 20.8512 31.9389 21.8571 31.9389H29.1429C30.1488 31.9389 30.9643 32.7259 30.9643 33.6966V44.2424C30.9643 45.2131 31.7798 46 32.7857 46H40.9821C43.497 46 45.5357 44.0327 45.5357 41.6059V27.0812C45.4606 27.0162 45.3869 26.9489 45.3147 26.8793L25.5 7.75857Z" fill="#ACEBFF" fill-opacity="0.63"/>
</svg>
