<svg width="313" height="252" viewBox="0 0 313 252" fill="none" xmlns="http://www.w3.org/2000/svg">
<path d="M156.6 198L156.6 90M156.6 90L202.753 138M156.6 90L110.446 138M75.8304 246C37.5953 246 6.59961 213.765 6.59961 174C6.59961 142.113 26.5312 115.067 54.1442 105.603C53.2311 100.547 52.7535 95.3316 52.7535 90C52.7535 43.6081 88.9151 6 133.523 6C170.926 6 202.391 32.4416 211.579 68.3319C216.067 66.8181 220.857 66 225.83 66C251.32 66 271.984 87.4903 271.984 114C271.984 119.57 271.072 124.919 269.394 129.893C291.143 138.487 306.6 160.366 306.6 186C306.6 219.137 280.77 246 248.907 246H75.8304Z" stroke="#6B9593" stroke-width="12" stroke-linecap="round" stroke-linejoin="round"/>
</svg>
